<svg xmlns="http://www.w3.org/2000/svg" viewBox="0 0 64 64" role="img">
  <rect width="64" height="64" rx="14" fill="#00aeec"/>
  <path fill="#fff" d="M21.5 12.5a3 3 0 0 1 4.2.4L32 20.3l6.3-7.4a3 3 0 1 1 4.6 3.9l-5.5 6.5h6.9c6.1 0 11 4.9 11 11v10.2c0 6.1-4.9 11-11 11H19.7c-6.1 0-11-4.9-11-11V34.3c0-6.1 4.9-11 11-11h6.9l-5.5-6.5a3 3 0 0 1 .4-4.3Zm-1.8 16.3a5.5 5.5 0 0 0-5.5 5.5v10.2a5.5 5.5 0 0 0 5.5 5.5h24.6a5.5 5.5 0 0 0 5.5-5.5V34.3a5.5 5.5 0 0 0-5.5-5.5H19.7Z"/>
  <path fill="#fff" d="M23 35.6a3.1 3.1 0 1 1 0 6.2 3.1 3.1 0 0 1 0-6.2Zm18 0a3.1 3.1 0 1 1 0 6.2 3.1 3.1 0 0 1 0-6.2Z"/>
</svg>
