<svg xmlns="http://www.w3.org/2000/svg" viewBox="0 0 64 64" role="img">
  <rect width="64" height="64" rx="14" fill="#101014"/>
  <path fill="#00f2ea" d="M30.2 23.5v18.2c0 6.7-5.4 12.1-12 12.1S6.3 48.4 6.3 41.7c0-6.6 5.3-12 11.9-12 .9 0 1.8.1 2.6.3v8.3a4.3 4.3 0 0 0-2.6-.8 4.3 4.3 0 1 0 4.2 4.2V9.8h8.8c.8 6.2 4.7 10.9 10.5 12.2v8.5c-4.5-.2-8.4-2.2-11.5-7Z"/>
  <path fill="#fe2c55" d="M35.7 20.9v18.2c0 6.7-5.4 12.1-12 12.1-3.1 0-6-1.2-8.1-3.1a4.3 4.3 0 0 0 7.3-3.1V13.1h8.8c.8 6.2 4.7 10.9 10.5 12.2v8.5c-2.3-.1-4.5-.7-6.5-1.8v-11Z"/>
  <path fill="#fff" d="M33 22.2v18.2c0 6.7-5.4 12.1-12 12.1S9.1 47.1 9.1 40.4c0-6.6 5.3-12 11.9-12 .9 0 1.8.1 2.6.3V37a4.3 4.3 0 0 0-2.6-.8 4.3 4.3 0 1 0 4.2 4.2V8.5H34c.8 6.2 4.7 10.9 10.5 12.2v8.5c-4.5-.2-8.4-2.2-11.5-7Z"/>
</svg>
