<svg width="444" height="444" viewBox="0 0 444 444" fill="none" xmlns="http://www.w3.org/2000/svg">
<rect width="444" height="444" fill="#202020"/>
<path d="M212.059 291.897L166.327 171.549C164.847 167.654 168.651 163.836 172.52 165.333L292.925 211.915C297.88 213.832 296.514 221.229 291.205 221.229H221.322V290.177C221.322 295.523 213.957 296.891 212.059 291.897Z" fill="#FFFFFF"/>
<path d="M72 222C72 304.843 139.157 372 222 372H82C76.4772 372 72 367.523 72 362V222Z" fill="#FFFFFF"/>
<path d="M222 87C296.558 87 357 147.442 357 222C357 296.558 296.558 357 222 357C147.442 357 87 296.558 87 222C87 147.442 147.442 87 222 87Z" stroke="#FFFFFF" stroke-width="30"/>
</svg>
