<?xml version="1.0" encoding="UTF-8"?>
<svg id="_图层_1" data-name="图层 1" xmlns="http://www.w3.org/2000/svg" viewBox="0 0 1254 1254">
  <defs>
    <style>
      .cls-1 {
        fill: #fff;
      }

      .cls-2 {
        fill: #0153e5;
      }

      .cls-3 {
        fill: none;
      }
    </style>
  </defs>
  <rect class="cls-1" x="209.93" y="239.7" width="886.97" height="823.36"/>
  <g>
    <path class="cls-2" d="M342.96,918.57c-8.78.99-17.22.03-26.23.38l-.2-33.63c8.59-.27,16.84-.33,25.42-.11,9.26.23,15.98,7.03,16.43,15.27.5,9.14-5.3,16.96-15.42,18.1Z"/>
    <circle class="cls-2" cx="525.02" cy="938.39" r="21.55"/>
    <path class="cls-2" d="M452.05,928.74h-37.83c1.8-9.05,10.06-14.35,18.32-14.49,8.9-.16,17.04,4.57,19.52,14.49Z"/>
    <circle class="cls-2" cx="699.75" cy="938.41" r="21.72"/>
    <path class="cls-3" d="M383.97,900c-.34-16.5-9.9-30.14-25.9-34.98-7.98-2.81-16.41-2.47-25.04-2.45l-41.97.09-.17,116.94,25.45.07.32-38.89c6.13-.38,11.39-.38,17.43-.02l25.49,38.96,28.97-.42-29.2-42.77c15.62-6.29,24.95-19.78,24.61-36.54Z"/>
    <path class="cls-3" d="M428.79,894.83c-21.93,2.02-37.88,19-39.14,40.79-1.45,25.11,17.07,45.58,42.46,46.43,15.52.52,30.39-5.8,39.12-19.17-6.41-3.86-12.13-8-18.78-10.99-5.81,8.38-14.4,10.82-23.24,8.87-7.45-1.64-14.72-7.79-15.57-16.66l60.66-.08c1.08-10.53-.15-21.27-5.86-30.58-8.41-13.7-23.84-20.07-39.65-18.61Z"/>
    <circle class="cls-3" cx="635.97" cy="527.03" r="3.17"/>
    <path class="cls-3" d="M546.16,896.83l-.68,9.23c-6.98-8.23-16.55-11.93-27.6-11.13-15.02,1.09-27.77,11.15-33.47,25.24-4.68,11.57-4.88,24.5-.48,36.11,5.28,13.95,17.19,23.97,31.95,25.58,11.55,1.26,21.74-2.99,29.47-11.93l.74,9.77c7.91-.1,15.47.65,22.9-.38l-.22-82.61-22.6.13Z"/>
    <path class="cls-3" d="M965.37,897.16c-9.43-.78-17.81-.64-26.73-.41l-16.3,23.6-15.65-23.31c-9.08-.07-17.5-1.07-27.28.01l28.9,40.27-30.46,42.06,26,.32,18.33-25.11,17.96,25.12,26.93-.31-30.5-42.21,28.8-40.03Z"/>
    <circle class="cls-3" cx="859.48" cy="871.74" r="14.34" transform="translate(-274.81 1332.19) rotate(-67.5)"/>
    <path class="cls-3" d="M631.97,932.3l-24.3-6.66c-2.52-.69-4.35-3.1-4.56-5.32-.16-1.67,1.06-4.39,3.17-5.29,9-3.86,19.32-1.43,25.61,6.26l17.45-7.58c-7.31-20.06-36.44-22.73-53.87-15.09-12.92,5.67-19.15,20.36-12.99,33.01,3.33,6.84,9.82,10.8,16.89,12.73l21.93,5.98c3.08.84,5.23,3.34,5.15,6.18-.22,8.62-16.77,9.48-26.64,2.77-2.37-1.61-2.97-4.52-5.67-5.7l-17.95,8.65c9.42,20.78,38.65,23.51,56.68,16.59,15.07-5.79,21.8-22.66,13.68-36.45-3.17-5.38-8.72-8.46-14.59-10.07Z"/>
    <rect class="cls-3" x="847.67" y="896.7" width="23.31" height="83.07"/>
    <circle class="cls-3" cx="699.8" cy="938.44" r="44.3"/>
    <path class="cls-3" d="M777.34,906.46c-1.49-3.47-.62-6.06-.87-9.46l-22.91-.21-.03,82.78,23.37.11.36-47.37c.07-9.61,8.36-16.15,18.21-15.86,9.44.27,15.86,6.71,15.94,15.67l.42,47.61,23.39-.09.04-49.62c0-8.86-2.55-17.51-8.08-24.25-11.77-14.36-38.08-15.23-49.82.69Z"/>
    <path class="cls-2" d="M0,261.39v731.21c0,144.36,117.03,261.39,261.39,261.39h731.21c144.36,0,261.39-117.03,261.39-261.39V261.39C1254,117.03,1136.97,0,992.61,0H261.39C117.03,0,0,117.03,0,261.39ZM670.87,309.92c25.94-.25,50.35,3.82,74.13,13.37,67.62,27.98,103.52,94.02,92.45,166.33-4.85,33.08-18.78,63.12-40.99,87.98-20.38,22.11-45.83,37.43-74.8,45.98l124.45,168.04-146.79.2-73.54-100.4-45.1-62.25s-8.9-.23-18.07-2.17c-9.17-1.94-19.57-6.57-19.57-6.57v171.23s-123.56.1-123.56.1l-.02-481.78,251.41-.07ZM359.58,979.74l-25.49-38.96c-6.04-.37-11.31-.37-17.43.02l-.32,38.89-25.45-.07.17-116.94,41.97-.09c8.63-.02,17.06-.36,25.04,2.45,16,4.84,25.56,18.48,25.9,34.98.34,16.76-8.99,30.24-24.61,36.54l29.2,42.77-28.97.42ZM474.3,944.03l-60.66.08c.84,8.87,8.11,15.02,15.57,16.66,8.84,1.95,17.43-.49,23.24-8.87,6.66,3,12.37,7.13,18.78,10.99-8.73,13.37-23.6,19.69-39.12,19.17-25.4-.85-43.92-21.32-42.46-46.43,1.26-21.79,17.21-38.77,39.14-40.79,15.8-1.45,31.24,4.92,39.65,18.61,5.72,9.31,6.94,20.05,5.86,30.58ZM546.08,979.7l-.74-9.77c-7.73,8.95-17.92,13.2-29.47,11.93-14.76-1.61-26.67-11.64-31.95-25.58-4.4-11.6-4.2-24.54.48-36.11,5.71-14.09,18.45-24.15,33.47-25.24,11.06-.8,20.62,2.91,27.6,11.13l.68-9.23,22.6-.13.22,82.61c-7.43,1.03-14.99.28-22.9.38ZM632.88,978.82c-18.03,6.92-47.26,4.18-56.68-16.59l17.95-8.65c2.7,1.18,3.3,4.09,5.67,5.7,9.87,6.71,26.42,5.86,26.64-2.77.07-2.84-2.08-5.34-5.15-6.18l-21.93-5.98c-7.07-1.93-13.56-5.89-16.89-12.73-6.16-12.65.07-27.35,12.99-33.01,17.43-7.64,46.57-4.97,53.87,15.09l-17.45,7.58c-6.29-7.68-16.61-10.11-25.61-6.26-2.11.9-3.33,3.62-3.17,5.29.21,2.22,2.03,4.63,4.56,5.32l24.3,6.66c5.87,1.61,11.42,4.7,14.59,10.07,8.12,13.79,1.39,30.66-13.68,36.45ZM699.8,982.74c-24.46,0-44.3-19.83-44.3-44.3s19.83-44.3,44.3-44.3,44.3,19.83,44.3,44.3-19.83,44.3-44.3,44.3ZM835.2,979.64l-23.39.09-.42-47.61c-.08-8.96-6.5-15.4-15.94-15.67-9.85-.29-18.14,6.26-18.21,15.86l-.36,47.37-23.37-.11.03-82.78,22.91.21c.25,3.4-.62,5.99.87,9.46,11.74-15.92,38.04-15.05,49.82-.69,5.53,6.74,8.09,15.39,8.08,24.25l-.04,49.62ZM870.95,979.78l-23.31-.02.06-83.07,23.31.02-.06,83.07ZM859.48,886.08c-7.92,0-14.34-6.42-14.34-14.34s6.42-14.34,14.34-14.34,14.34,6.42,14.34,14.34-6.42,14.34-14.34,14.34ZM940.14,979.71l-17.96-25.12-18.33,25.11-26-.32,30.46-42.06-28.9-40.27c9.78-1.08,18.2-.09,27.28-.01l15.65,23.31,16.3-23.6c8.92-.23,17.29-.37,26.73.41l-28.8,40.03,30.5,42.21-26.93.31Z"/>
    <path class="cls-2" d="M782.83,402.24c-1.85-1.28-4.9-1.16-6.68.51-17.27,16.27-23.98,5.88-42.61,18.58-7.99,5.45-8.49-8.22-24.93-13.29-17.31-5.33-13.58-18.33-20.59-18.03-1.74.07-3.78,1.14-4.56,3.34-8.16,22.81-.3,48.57,20.57,60.92,3.04,1.8,5.12,4.05,4.14,7.82-1.99,7.61-3.97,15.12-6.98,22.28-5.15,12.29-25.38-2.8-31.34-8.16-12.27-11.04-24-21.71-37.54-31.22-3.94-2.76-5.81-7.59-5.81-11.76.01-9.91,10.28-11.85,9.66-15.48-.18-1.06-1.97-2.4-3.76-2.6-26.57-2.92-40.51,12.4-53.57,10.57-35.33-4.96-66.16,4-88.72,32.2-22.65,29.03-27.1,67.21-12.69,101.26,11.29,26.67,31.84,47.96,58.71,60.25,0,0,11.41,5.07,21.46,7.2,10.05,2.13,19.82,2.37,19.82,2.37,32.33,2.07,62.01-8.01,86.01-28.22,17.53,5.29,36.02,6.3,53.23.6,3.17-1.05,5.37-3.49,5.74-6.25.42-3.17-1.98-6.14-5.3-7.27l-23.45-7.97c-1.2-.41-2.3-1.31-2.46-2.23-.16-.88.38-2.19,1.28-3.1,27.83-28.48,40.66-67.62,43.49-106.85.97-13.36,15.89-4.23,33.65-23.31,9.4-10.09,14.75-23.22,15.26-36.97.09-2.38-.89-4.42-2.03-5.22ZM609.08,605.11c-59.82,11.42-113.19-35.95-118.44-93.8-.75-8.3,3.91-13.86,11.66-14.8,35.46-4.3,69.55,13.44,93.5,38.62,16.74,17.6,26.67,35.46,47.01,52.99-9.41,9.5-21.01,14.56-33.74,16.99ZM634.59,517.01c0-1.92,1.55-3.47,3.47-3.47s3.47,1.55,3.47,3.47-1.55,3.47-3.47,3.47-3.47-1.55-3.47-3.47ZM672.22,537.14c-6.52,2.98-12.86,1.54-17.45-2.32-4.95-4.17-6.33-10.03-5.61-16.89.69-6.57-6.63-10.66-12.52-9.44-1.85.38-3.27.14-3.99-.88-.9-1.29-.94-3.4.24-5.03,9.68-13.3,33.95,3.9,42.55,27.41,1.08,2.94-.64,5.96-3.22,7.14Z"/>
  </g>
</svg>
