<svg width="700" height="272" viewBox="0 0 700 272" fill="none" xmlns="http://www.w3.org/2000/svg">
<path d="M345.119 172.127H356.474L351.36 155.734H316.319L311.206 172.127H323.237V192.73H280V172.127H288.497L319.553 78.7344H349.706L380.085 172.127H388.356V192.73H345.119V172.127ZM322.26 136.484H345.27L333.689 99.4131L322.26 136.484Z" fill="#202020"/>
<path d="M398.658 172.127H409.261V99.4131H398.658V78.7344H445.58L479.192 160.998L510.398 78.7344H557.997V99.4131H547.395V172.127H557.847V192.73H515.211V172.127H523.031V106.557L488.893 191.377H467.763L433.022 108.812V172.127H441.52V192.73H398.658V172.127Z" fill="#202020"/>
<path d="M575.066 78.7344H635.373C641.238 78.7344 646.477 79.6117 651.089 81.3662C655.701 83.1208 659.586 85.4769 662.744 88.4346C665.902 91.3421 668.309 94.751 669.963 98.6611C671.667 102.521 672.52 106.557 672.52 110.768C672.52 114.628 672.093 118.011 671.241 120.919C670.439 123.826 669.236 126.408 667.632 128.664C666.078 130.92 664.148 132.925 661.842 134.68C659.536 136.384 656.904 137.938 653.946 139.342C656.503 140.645 658.759 142.65 660.714 145.357C662.669 148.014 664.148 151.473 665.15 155.734L668.985 170.548H678.385L678.535 192.73H645.449L640.938 165.66C640.486 162.452 639.785 159.695 638.832 157.389C637.93 155.033 636.701 153.128 635.147 151.674C633.593 150.17 631.688 149.067 629.433 148.365C627.227 147.663 624.595 147.312 621.537 147.312H611.837V172.127H622.289V192.73H575.066V172.127H586.872V99.4131H575.066V78.7344ZM611.837 99.4131V127.01H626.801C629.658 127.01 632.215 126.759 634.471 126.258C636.777 125.706 638.732 124.879 640.336 123.776C641.99 122.623 643.243 121.195 644.096 119.49C644.998 117.786 645.449 115.756 645.449 113.399C645.449 108.988 643.87 105.554 640.712 103.098C637.554 100.641 632.917 99.4131 626.801 99.4131H611.837Z" fill="#202020"/>
<path d="M260 136.734C260 245.196 243.461 261.734 135 261.734C26.5386 261.734 10 245.196 10 136.734C10 28.2729 26.5386 11.7344 135 11.7344C243.461 11.7344 260 28.2729 260 136.734Z" fill="#202020"/>
<path d="M143.779 127.376C143.429 129.541 140.691 130.28 139.322 128.58L96.7103 75.6752C94.9568 73.4979 97.525 70.4868 99.9443 71.8836L131.789 90.2692L149.929 58.8503C151.335 56.4142 155.051 57.7284 154.602 60.5031L143.779 127.376Z" fill="white"/>
<path d="M145.082 148.79C142.916 149.126 141.367 146.751 142.561 144.923L179.708 88.0486C181.237 85.7081 184.894 87.2202 184.313 89.9526L176.668 125.92L212.155 133.463C214.906 134.048 214.805 137.988 212.027 138.419L145.082 148.79Z" fill="white"/>
<path d="M125.114 156.651C124.126 154.695 125.906 152.488 128.013 153.058L193.583 170.812C196.282 171.543 195.974 175.488 193.196 175.78L156.626 179.624L160.418 215.705C160.712 218.502 156.933 219.623 155.665 217.115L125.114 156.651Z" fill="white"/>
<path d="M111.472 140.086C113.028 138.541 115.677 139.552 115.785 141.732L119.163 209.58C119.301 212.372 115.454 213.298 114.318 210.746L99.3615 177.154L66.2185 191.91C63.6488 193.055 61.4149 189.807 63.409 187.826L111.472 140.086Z" fill="white"/>
<path d="M123.003 121.987C124.953 122.989 124.81 125.821 122.77 126.598L59.2868 150.776C56.6742 151.771 54.6041 148.398 56.6801 146.529L84.0064 121.924L59.7308 94.9632C57.8485 92.8728 60.2468 89.7448 62.7469 91.0291L123.003 121.987Z" fill="white"/>
</svg>
