<svg width="444" height="444" viewBox="0 0 444 444" fill="none" xmlns="http://www.w3.org/2000/svg">
<path d="M212.059 291.897L166.327 171.549C164.847 167.654 168.651 163.836 172.52 165.333L292.925 211.915C297.88 213.832 296.514 221.229 291.205 221.229H221.322V290.177C221.322 295.523 213.957 296.891 212.059 291.897Z" fill="#202020"/>
<path d="M222 82C299.32 82 362 144.68 362 222C362 299.32 299.32 362 222 362C144.68 362 82 299.32 82 222C82 144.68 144.68 82 222 82Z" stroke="#202020" stroke-width="20"/>
<path d="M72 222C72 304.843 139.157 372 222 372H82C76.4772 372 72 367.523 72 362V222Z" fill="#202020"/>
</svg>
