<svg width="204" height="83" viewBox="0 0 204 83" fill="none" xmlns="http://www.w3.org/2000/svg">
<g clip-path="url(#clip0_609_3734)">
<path d="M100.644 42.3344C103.431 42.3344 105.836 42.8647 107.859 43.9254C109.906 44.986 111.485 46.503 112.595 48.4764C113.73 50.425 114.297 52.7314 114.297 55.3954C114.297 58.0347 113.73 60.3164 112.595 62.2404C111.485 64.1644 109.906 65.6444 107.859 66.6804C105.836 67.7164 103.431 68.2344 100.644 68.2344H91.3939V42.3344H100.644ZM100.644 64.5714C103.604 64.5714 105.873 63.7697 107.452 62.1664C109.055 60.5384 109.857 58.2814 109.857 55.3954C109.857 52.4847 109.055 50.1907 107.452 48.5134C105.873 46.836 103.604 45.9974 100.644 45.9974H95.7969V64.5714H100.644ZM126.117 68.4934C124.267 68.4934 122.639 68.0864 121.233 67.2724C119.852 66.4584 118.767 65.3237 117.977 63.8684C117.213 62.413 116.83 60.7357 116.83 58.8364C116.83 57.0357 117.213 55.4324 117.977 54.0264C118.742 52.6204 119.803 51.5104 121.159 50.6964C122.516 49.8824 124.058 49.4754 125.784 49.4754C127.536 49.4754 129.077 49.8577 130.409 50.6224C131.741 51.387 132.777 52.46 133.517 53.8414C134.282 55.198 134.664 56.7767 134.664 58.5774C134.664 58.8734 134.652 59.194 134.627 59.5394C134.603 59.86 134.566 60.2054 134.516 60.5754H121.344C121.468 61.4387 121.739 62.191 122.158 62.8324C122.602 63.449 123.157 63.93 123.823 64.2754C124.489 64.6207 125.254 64.7934 126.117 64.7934C127.153 64.7934 128.078 64.5837 128.892 64.1644C129.731 63.745 130.311 63.19 130.631 62.4994L134.294 63.7204C133.554 65.2004 132.457 66.372 131.001 67.2354C129.546 68.074 127.918 68.4934 126.117 68.4934ZM130.113 57.1714C130.089 56.4067 129.879 55.716 129.484 55.0994C129.09 54.4827 128.572 54.0017 127.93 53.6564C127.289 53.2864 126.574 53.1014 125.784 53.1014C125.094 53.1014 124.44 53.274 123.823 53.6194C123.207 53.9647 122.676 54.4457 122.232 55.0624C121.813 55.6544 121.542 56.3574 121.418 57.1714H130.113ZM140.9 62.2774C141.072 62.968 141.368 63.4984 141.788 63.8684C142.232 64.2384 142.713 64.4974 143.231 64.6454C143.749 64.7687 144.242 64.8304 144.711 64.8304C145.673 64.8304 146.425 64.6454 146.968 64.2754C147.535 63.8807 147.819 63.3874 147.819 62.7954C147.819 62.302 147.634 61.9197 147.264 61.6484C146.894 61.377 146.413 61.1674 145.821 61.0194C145.253 60.8467 144.661 60.674 144.045 60.5014C143.379 60.3287 142.663 60.1314 141.899 59.9094C141.159 59.6874 140.456 59.379 139.79 58.9844C139.124 58.5897 138.581 58.084 138.162 57.4674C137.742 56.8507 137.533 56.086 137.533 55.1734C137.533 54.014 137.853 53.015 138.495 52.1764C139.136 51.313 140.012 50.647 141.122 50.1784C142.232 49.7097 143.477 49.4754 144.859 49.4754C146.511 49.4754 147.942 49.8207 149.151 50.5114C150.359 51.202 151.235 52.2134 151.778 53.5454L148.115 54.7294C147.942 54.384 147.683 54.088 147.338 53.8414C147.017 53.5947 146.622 53.422 146.154 53.3234C145.71 53.2 145.253 53.1384 144.785 53.1384C143.995 53.1384 143.329 53.2987 142.787 53.6194C142.244 53.94 141.973 54.3964 141.973 54.9884C141.973 55.2844 142.059 55.5434 142.232 55.7654C142.429 55.9874 142.688 56.1724 143.009 56.3204C143.329 56.4437 143.712 56.567 144.156 56.6904C144.6 56.789 145.068 56.9124 145.562 57.0604C146.351 57.2824 147.128 57.529 147.893 57.8004C148.682 58.047 149.397 58.3677 150.039 58.7624C150.705 59.157 151.223 59.675 151.593 60.3164C151.987 60.9577 152.209 61.7717 152.259 62.7584C152.259 63.819 151.95 64.7934 151.334 65.6814C150.717 66.5447 149.829 67.2354 148.67 67.7534C147.535 68.2467 146.178 68.4934 144.6 68.4934C142.774 68.4934 141.208 68.0987 139.901 67.3094C138.593 66.52 137.705 65.2497 137.237 63.4984L140.9 62.2774ZM156.416 49.7344H160.597V68.2344H156.416V49.7344ZM158.525 46.9224C157.76 46.9224 157.119 46.6634 156.601 46.1454C156.083 45.6274 155.824 45.0107 155.824 44.2954C155.824 43.5307 156.083 42.8894 156.601 42.3714C157.119 41.8534 157.76 41.5944 158.525 41.5944C159.265 41.5944 159.894 41.8534 160.412 42.3714C160.93 42.8894 161.189 43.5307 161.189 44.2954C161.189 45.0107 160.93 45.6274 160.412 46.1454C159.894 46.6634 159.265 46.9224 158.525 46.9224ZM179.293 49.7344H183.067V65.4594C183.067 67.556 182.549 69.3567 181.513 70.8614C180.477 72.3907 178.985 73.5624 177.036 74.3764C175.088 75.215 172.744 75.6344 170.006 75.6344L169.377 72.0454C172.485 71.9714 174.841 71.3794 176.444 70.2694C178.072 69.1594 178.886 67.5684 178.886 65.4964V65.4594H179.367C178.8 66.298 177.974 67.0134 176.888 67.6054C175.828 68.1974 174.557 68.4934 173.077 68.4934C171.449 68.4934 170.006 68.0987 168.748 67.3094C167.49 66.52 166.504 65.41 165.788 63.9794C165.098 62.5487 164.752 60.8837 164.752 58.9844C164.752 57.085 165.098 55.42 165.788 53.9894C166.504 52.5587 167.49 51.4487 168.748 50.6594C170.006 49.87 171.449 49.4754 173.077 49.4754C173.99 49.4754 174.816 49.5987 175.556 49.8454C176.321 50.0674 176.987 50.3757 177.554 50.7704C178.146 51.1404 178.627 51.5597 178.997 52.0284L179.293 49.7344ZM169.229 58.9844C169.229 60.6864 169.673 62.0677 170.561 63.1284C171.449 64.189 172.633 64.7194 174.113 64.7194C174.977 64.7194 175.766 64.4974 176.481 64.0534C177.197 63.5847 177.776 62.9187 178.22 62.0554C178.664 61.192 178.886 60.1684 178.886 58.9844C178.886 57.751 178.664 56.715 178.22 55.8764C177.776 55.013 177.184 54.3594 176.444 53.9154C175.729 53.4714 174.952 53.2494 174.113 53.2494C172.633 53.2494 171.449 53.7797 170.561 54.8404C169.673 55.8764 169.229 57.2577 169.229 58.9844ZM187.603 49.7344H191.377L191.673 51.5474C192.29 50.906 193.017 50.4004 193.856 50.0304C194.719 49.6604 195.644 49.4754 196.631 49.4754C198.086 49.4754 199.332 49.7837 200.368 50.4004C201.429 50.9924 202.243 51.8804 202.81 53.0644C203.377 54.2237 203.661 55.679 203.661 57.4304V68.2344H199.48V57.9854C199.48 56.4314 199.159 55.2597 198.518 54.4704C197.901 53.681 196.964 53.2864 195.706 53.2864C194.423 53.2864 193.449 53.6934 192.783 54.5074C192.117 55.2967 191.784 56.4684 191.784 58.0224V68.2344H187.603V49.7344Z" fill="#26251E"/>
<path d="M104.489 35.259C102.663 35.259 100.949 34.9383 99.3458 34.297C97.7424 33.6557 96.3364 32.7553 95.1278 31.596C93.9438 30.412 93.0064 29.0183 92.3158 27.415C91.6498 25.787 91.3168 23.9987 91.3168 22.05C91.3168 20.126 91.6498 18.3623 92.3158 16.759C93.0064 15.131 93.9438 13.725 95.1278 12.541C96.3364 11.357 97.7424 10.4443 99.3458 9.803C100.949 9.16167 102.663 8.841 104.489 8.841C106.314 8.841 108.016 9.16167 109.595 9.803C111.198 10.4443 112.592 11.357 113.776 12.541C114.984 13.725 115.922 15.131 116.588 16.759C117.278 18.3623 117.624 20.126 117.624 22.05C117.624 23.9987 117.278 25.787 116.588 27.415C115.922 29.0183 114.984 30.412 113.776 31.596C112.592 32.7553 111.198 33.6557 109.595 34.297C108.016 34.9383 106.314 35.259 104.489 35.259ZM104.489 31.522C106.166 31.522 107.658 31.1397 108.966 30.375C110.273 29.5857 111.297 28.488 112.037 27.082C112.777 25.6513 113.147 23.974 113.147 22.05C113.147 20.1013 112.777 18.424 112.037 17.018C111.297 15.612 110.273 14.5267 108.966 13.762C107.658 12.9727 106.166 12.578 104.489 12.578C102.811 12.578 101.319 12.9727 100.012 13.762C98.7044 14.5267 97.6684 15.612 96.9038 17.018C96.1638 18.424 95.7938 20.1013 95.7938 22.05C95.7938 23.974 96.1638 25.6513 96.9038 27.082C97.6684 28.488 98.7044 29.5857 100.012 30.375C101.319 31.1397 102.811 31.522 104.489 31.522ZM126.991 32.262L127.472 32.151V42.4H123.291V16.5H127.065L127.361 18.794C127.978 18.0787 128.78 17.4743 129.766 16.981C130.753 16.4877 131.949 16.241 133.355 16.241C134.959 16.241 136.377 16.6357 137.61 17.425C138.868 18.2143 139.843 19.3243 140.533 20.755C141.249 22.161 141.606 23.826 141.606 25.75C141.606 27.6493 141.249 29.3143 140.533 30.745C139.843 32.1757 138.881 33.2857 137.647 34.075C136.414 34.8643 134.983 35.259 133.355 35.259C131.875 35.259 130.593 34.9753 129.507 34.408C128.422 33.816 127.583 33.1007 126.991 32.262ZM137.129 25.75C137.129 24.048 136.673 22.6667 135.76 21.606C134.872 20.5453 133.725 20.015 132.319 20.015C131.431 20.015 130.617 20.237 129.877 20.681C129.162 21.125 128.582 21.7663 128.138 22.605C127.694 23.4437 127.472 24.492 127.472 25.75C127.472 26.9833 127.694 28.0317 128.138 28.895C128.582 29.7337 129.162 30.375 129.877 30.819C130.617 31.263 131.431 31.485 132.319 31.485C133.725 31.485 134.872 30.9547 135.76 29.894C136.673 28.8333 137.129 27.452 137.129 25.75ZM155.651 35.259C153.801 35.259 152.173 34.852 150.767 34.038C149.386 33.224 148.3 32.0893 147.511 30.634C146.746 29.1787 146.364 27.5013 146.364 25.602C146.364 23.8013 146.746 22.198 147.511 20.792C148.276 19.386 149.336 18.276 150.693 17.462C152.05 16.648 153.591 16.241 155.318 16.241C157.069 16.241 158.611 16.6233 159.943 17.388C161.275 18.1527 162.311 19.2257 163.051 20.607C163.816 21.9637 164.198 23.5423 164.198 25.343C164.198 25.639 164.186 25.9597 164.161 26.305C164.136 26.6257 164.099 26.971 164.05 27.341H150.878C151.001 28.2043 151.273 28.9567 151.692 29.598C152.136 30.2147 152.691 30.6957 153.357 31.041C154.023 31.3863 154.788 31.559 155.651 31.559C156.687 31.559 157.612 31.3493 158.426 30.93C159.265 30.5107 159.844 29.9557 160.165 29.265L163.828 30.486C163.088 31.966 161.99 33.1377 160.535 34.001C159.08 34.8397 157.452 35.259 155.651 35.259ZM159.647 23.937C159.622 23.1723 159.413 22.4817 159.018 21.865C158.623 21.2483 158.105 20.7673 157.464 20.422C156.823 20.052 156.107 19.867 155.318 19.867C154.627 19.867 153.974 20.0397 153.357 20.385C152.74 20.7303 152.21 21.2113 151.766 21.828C151.347 22.42 151.075 23.123 150.952 23.937H159.647ZM169.989 16.5H173.763L174.059 18.313C174.676 17.6717 175.404 17.166 176.242 16.796C177.106 16.426 178.031 16.241 179.017 16.241C180.473 16.241 181.718 16.5493 182.754 17.166C183.815 17.758 184.629 18.646 185.196 19.83C185.764 20.9893 186.047 22.4447 186.047 24.196V35H181.866V24.751C181.866 23.197 181.546 22.0253 180.904 21.236C180.288 20.4467 179.35 20.052 178.092 20.052C176.81 20.052 175.835 20.459 175.169 21.273C174.503 22.0623 174.17 23.234 174.17 24.788V35H169.989V16.5Z" fill="#26251E"/>
<g clip-path="url(#clip1_609_3734)">
<path d="M82 41.7266C82 77.3019 76.5753 82.7266 41 82.7266C5.42465 82.7266 0 77.3019 0 41.7266C0 6.15121 5.42465 0.726562 41 0.726562C76.5753 0.726562 82 6.15121 82 41.7266Z" fill="#202020"/>
<path fill-rule="evenodd" clip-rule="evenodd" d="M40.8904 16.4258C54.8646 16.4258 66.193 27.7541 66.193 41.7283C66.193 55.7025 54.8646 67.0309 40.8904 67.0309H18.9543C17.0911 67.0309 15.588 65.528 15.588 63.6648C15.588 58.0216 15.5879 46.7754 15.5879 41.7283C15.5879 27.7541 26.9162 16.4258 40.8904 16.4258ZM40.8905 21.4864C29.7112 21.4864 20.6485 30.5491 20.6485 41.7284C20.6485 52.9078 29.7112 61.9704 40.8905 61.9704C52.0699 61.9704 61.1325 52.9078 61.1325 41.7284C61.1325 30.5491 52.0699 21.4864 40.8905 21.4864Z" fill="white"/>
<path d="M39.3144 53.6047L31.6001 33.3039C31.3504 32.6469 31.9921 32.0028 32.6447 32.2553L52.955 40.113C53.7909 40.4364 53.5606 41.6841 52.665 41.6841H40.8769V53.3146C40.8769 54.2163 39.6345 54.447 39.3144 53.6047Z" fill="white"/>
</g>
</g>
<defs>
<clipPath id="clip0_609_3734">
<rect width="204" height="83" fill="white"/>
</clipPath>
<clipPath id="clip1_609_3734">
<rect width="82" height="82" fill="white" transform="translate(0 0.726562)"/>
</clipPath>
</defs>
</svg>
