<svg width="82" height="82" viewBox="19 18.7266 82 82" fill="none" xmlns="http://www.w3.org/2000/svg">
<path d="M101 59.7266C101 95.3019 95.5753 100.727 60 100.727C24.4247 100.727 19 95.3019 19 59.7266C19 24.1512 24.4247 18.7266 60 18.7266C95.5753 18.7266 101 24.1512 101 59.7266Z" fill="#202020"/>
<path fill-rule="evenodd" clip-rule="evenodd" d="M59.8885 34.4258C73.8627 34.4258 85.191 45.7541 85.191 59.7283C85.191 73.7025 73.8627 85.0309 59.8885 85.0309H37.9523C36.0891 85.0309 34.5861 83.528 34.586 81.6648C34.586 76.0216 34.5859 64.7754 34.5859 59.7283C34.5859 45.7541 45.9143 34.4258 59.8885 34.4258ZM59.8886 39.4864C48.7092 39.4864 39.6465 48.5491 39.6465 59.7284C39.6465 70.9078 48.7092 79.9704 59.8886 79.9704C71.0679 79.9704 80.1305 70.9078 80.1306 59.7284C80.1306 48.5491 71.0679 39.4864 59.8886 39.4864Z" fill="white"/>
<path d="M58.3164 71.6047L50.602 51.3039C50.3524 50.6469 50.994 50.0028 51.6467 50.2553L71.957 58.113C72.7928 58.4364 72.5625 59.6841 71.667 59.6841H59.8788V71.3146C59.8788 72.2163 58.6364 72.447 58.3164 71.6047Z" fill="white"/>
</svg>
